<svg xmlns="http://www.w3.org/2000/svg" width="1240" height="1680" viewBox="0 0 1240 1680" font-family="-apple-system, 'PingFang SC', 'Segoe UI', Roboto, sans-serif">
  <style>
    .t{fill:#334155;font-size:13px}
    .sub{fill:#94A3B8;font-size:12px}
    .hd{fill:#1E293B;font-size:15px;font-weight:700}
    .big{fill:#0F172A;font-size:22px;font-weight:800}
    .tag{fill:#2563EB;font-size:11px;font-weight:700}
    .cap{fill:#64748B;font-size:11px}
  </style>

  <!-- backdrop -->
  <rect x="0" y="0" width="1240" height="1680" fill="#E2E8F0"/>

  <!-- ===== 侧边栏 ===== -->
  <rect x="0" y="0" width="200" height="1680" fill="#F8FAFC" stroke="#CBD5E1"/>
  <rect x="24" y="22" width="120" height="20" rx="4" fill="#CBD5E1"/>
  <text x="24" y="38" class="cap" fill="#475569">businessHub</text>
  <g>
    <rect x="16" y="70" width="168" height="30" rx="6" fill="#EEF2FF" stroke="#C7D2FE"/>
    <text x="30" y="90" class="t">财务</text>
    <rect x="16" y="106" width="168" height="30" rx="6" fill="none"/>
    <text x="30" y="126" class="t">ICA 申诉</text>
    <text x="30" y="162" class="t" fill="#1E293B" font-weight="700">教育业务</text>
    <!-- education children -->
    <text x="44" y="192" class="sub">成人大专</text>
    <rect x="28" y="204" width="156" height="28" rx="6" fill="#DCFCE7" stroke="#86EFAC"/>
    <text x="44" y="223" class="t" fill="#15803D" font-weight="700">成人英语 ●</text>
    <text x="44" y="252" class="sub">WSQ</text>
    <text x="44" y="282" class="sub">老师</text>
  </g>

  <!-- ===== 顶栏 ===== -->
  <rect x="200" y="0" width="1040" height="52" fill="#FFFFFF" stroke="#CBD5E1"/>
  <text x="230" y="32" class="t" fill="#64748B">教育  ›  成人英语</text>
  <circle cx="1200" cy="26" r="13" fill="#E2E8F0" stroke="#CBD5E1"/>

  <!-- ===== 内容区 ===== -->
  <!-- tabs 行 -->
  <text x="232" y="92" class="t" fill="#94A3B8">课程与排课</text>
  <text x="330" y="92" class="t" fill="#94A3B8">学生</text>
  <text x="392" y="92" class="t" fill="#2563EB" font-weight="800">课程设计</text>
  <rect x="392" y="100" width="64" height="3" rx="1.5" fill="#2563EB"/>
  <text x="484" y="92" class="t" fill="#94A3B8">收费&amp;分成</text>
  <line x1="230" y1="103" x2="1190" y2="103" stroke="#CBD5E1"/>
  <text x="1190" y="92" text-anchor="end" class="tag" fill="#94A3B8">▲ tabs 行（Mantine Tabs）</text>

  <!-- 标题区 -->
  <text x="230" y="146" class="big">课程设计</text>
  <rect x="1078" y="128" width="112" height="26" rx="13" fill="#F3E8FF" stroke="#E9D5FF"/>
  <text x="1094" y="146" class="t" fill="#7C3AED" font-weight="700">负责人：小雨</text>
  <text x="230" y="168" class="tag">① 页面标题区 · 标题 + 负责人徽章（右对齐）</text>

  <!-- 定位信息条 Alert -->
  <rect x="230" y="180" width="960" height="76" rx="10" fill="#EFF6FF" stroke="#BFDBFE"/>
  <rect x="248" y="198" width="22" height="22" rx="5" fill="#93C5FD"/>
  <text x="282" y="214" class="t" fill="#1E40AF" font-weight="700">产品定位 · 为什么这样设计</text>
  <rect x="282" y="224" width="760" height="8" rx="4" fill="#BFDBFE"/>
  <rect x="282" y="238" width="640" height="8" rx="4" fill="#DBEAFE"/>
  <text x="1000" y="200" class="tag">② 信息条 Alert · 定位说明</text>

  <!-- ====== §0 进度看板 ====== -->
  <g>
    <rect x="230" y="276" width="960" height="196" rx="12" fill="#FFFFFF" stroke="#CBD5E1"/>
    <circle cx="256" cy="306" r="14" fill="#EEF2FF"/><text x="256" y="311" text-anchor="middle" class="hd" fill="#4338CA">0</text>
    <text x="282" y="304" class="hd">设计进度追踪</text>
    <text x="282" y="322" class="sub">小雨在这里更新每项交付物的状态</text>
    <line x1="248" y1="336" x2="1172" y2="336" stroke="#E2E8F0"/>
    <text x="980" y="304" class="tag">③ 进度看板（数据表格）</text>
    <!-- table -->
    <rect x="248" y="348" width="924" height="30" fill="#F1F5F9"/>
    <text x="262" y="368" class="cap" fill="#475569">设计任务</text>
    <text x="712" y="368" class="cap" fill="#475569">负责人</text>
    <text x="812" y="368" class="cap" fill="#475569">状态</text>
    <text x="932" y="368" class="cap" fill="#475569">交付物</text>
    <line x1="700" y1="348" x2="700" y2="462" stroke="#E2E8F0"/>
    <line x1="800" y1="348" x2="800" y2="462" stroke="#E2E8F0"/>
    <line x1="920" y1="348" x2="920" y2="462" stroke="#E2E8F0"/>
    <g fill="#CBD5E1">
      <rect x="262" y="392" width="300" height="8" rx="4"/><rect x="262" y="416" width="260" height="8" rx="4"/><rect x="262" y="440" width="320" height="8" rx="4"/>
      <rect x="712" y="392" width="50" height="8" rx="4"/><rect x="712" y="416" width="50" height="8" rx="4"/><rect x="712" y="440" width="50" height="8" rx="4"/>
      <rect x="932" y="392" width="200" height="8" rx="4"/><rect x="932" y="416" width="180" height="8" rx="4"/><rect x="932" y="440" width="210" height="8" rx="4"/>
    </g>
    <!-- status pills -->
    <rect x="812" y="386" width="56" height="18" rx="9" fill="#DCFCE7"/>
    <rect x="812" y="410" width="56" height="18" rx="9" fill="#DBEAFE"/>
    <rect x="812" y="434" width="56" height="18" rx="9" fill="#F1F5F9"/>
    <line x1="248" y1="384" x2="1172" y2="384" stroke="#F1F5F9"/>
    <line x1="248" y1="408" x2="1172" y2="408" stroke="#F1F5F9"/>
    <line x1="248" y1="432" x2="1172" y2="432" stroke="#F1F5F9"/>
  </g>

  <!-- ====== §1 分级体系 ====== -->
  <g>
    <rect x="230" y="492" width="960" height="212" rx="12" fill="#FFFFFF" stroke="#CBD5E1"/>
    <circle cx="256" cy="522" r="14" fill="#EEF2FF"/><text x="256" y="527" text-anchor="middle" class="hd" fill="#4338CA">1</text>
    <text x="282" y="520" class="hd">分级体系</text>
    <text x="282" y="538" class="sub">CEFR 对齐 6 级 · AI 测评定级</text>
    <line x1="248" y1="552" x2="1172" y2="552" stroke="#E2E8F0"/>
    <text x="1010" y="520" class="tag">④ 分级表（6 行）</text>
    <rect x="248" y="564" width="924" height="28" fill="#F1F5F9"/>
    <text x="262" y="583" class="cap" fill="#475569">级别</text>
    <text x="330" y="583" class="cap" fill="#475569">名称</text>
    <text x="560" y="583" class="cap" fill="#475569">CEFR</text>
    <text x="700" y="583" class="cap" fill="#475569">目标人群</text>
    <text x="920" y="583" class="cap" fill="#475569">训练重心</text>
    <g fill="#CBD5E1">
      <rect x="330" y="606" width="180" height="7" rx="3.5"/><rect x="560" y="606" width="90" height="7" rx="3.5"/><rect x="700" y="606" width="150" height="7" rx="3.5"/><rect x="920" y="606" width="200" height="7" rx="3.5"/>
      <rect x="330" y="628" width="170" height="7" rx="3.5"/><rect x="560" y="628" width="90" height="7" rx="3.5"/><rect x="700" y="628" width="140" height="7" rx="3.5"/><rect x="920" y="628" width="190" height="7" rx="3.5"/>
      <rect x="330" y="650" width="190" height="7" rx="3.5"/><rect x="560" y="650" width="90" height="7" rx="3.5"/><rect x="700" y="650" width="150" height="7" rx="3.5"/><rect x="920" y="650" width="180" height="7" rx="3.5"/>
      <rect x="330" y="672" width="160" height="7" rx="3.5"/><rect x="560" y="672" width="90" height="7" rx="3.5"/><rect x="700" y="672" width="150" height="7" rx="3.5"/><rect x="920" y="672" width="200" height="7" rx="3.5"/>
    </g>
    <g fill="#DBEAFE"><rect x="262" y="600" width="30" height="16" rx="8"/><rect x="262" y="622" width="30" height="16" rx="8"/><rect x="262" y="644" width="30" height="16" rx="8"/><rect x="262" y="666" width="30" height="16" rx="8"/></g>
    <text x="262" y="694" class="sub">⋮  L1 … L6（共 6 级）</text>
  </g>

  <!-- ====== §2 命名 & 收费 ====== -->
  <g>
    <rect x="230" y="724" width="960" height="286" rx="12" fill="#FFFFFF" stroke="#CBD5E1"/>
    <circle cx="256" cy="754" r="14" fill="#EEF2FF"/><text x="256" y="759" text-anchor="middle" class="hd" fill="#4338CA">2</text>
    <text x="282" y="752" class="hd">课程命名 &amp; 收费</text>
    <text x="282" y="770" class="sub">App 订阅（SGD）· 命名走「分级 + 卖点」双名</text>
    <line x1="248" y1="784" x2="1172" y2="784" stroke="#E2E8F0"/>
    <text x="980" y="752" class="tag">⑤ 定价表 + 逻辑 + 增值卡</text>
    <!-- table -->
    <rect x="248" y="796" width="924" height="26" fill="#F1F5F9"/>
    <text x="262" y="814" class="cap" fill="#475569">级别</text>
    <text x="330" y="814" class="cap" fill="#475569">营销课名</text>
    <text x="640" y="814" class="cap" fill="#475569">月费</text>
    <text x="720" y="814" class="cap" fill="#475569">季/年</text>
    <text x="860" y="814" class="cap" fill="#475569">定价理由</text>
    <g fill="#CBD5E1">
      <rect x="330" y="834" width="220" height="7" rx="3.5"/><rect x="640" y="834" width="40" height="7" rx="3.5"/><rect x="720" y="834" width="90" height="7" rx="3.5"/><rect x="860" y="834" width="260" height="7" rx="3.5"/>
      <rect x="330" y="854" width="200" height="7" rx="3.5"/><rect x="640" y="854" width="40" height="7" rx="3.5"/><rect x="720" y="854" width="90" height="7" rx="3.5"/><rect x="860" y="854" width="240" height="7" rx="3.5"/>
      <rect x="330" y="874" width="230" height="7" rx="3.5"/><rect x="640" y="874" width="40" height="7" rx="3.5"/><rect x="720" y="874" width="90" height="7" rx="3.5"/><rect x="860" y="874" width="250" height="7" rx="3.5"/>
    </g>
    <text x="262" y="898" class="sub">⋮  共 6 档</text>
    <!-- callout -->
    <rect x="248" y="910" width="924" height="42" rx="8" fill="#F8FAFC" stroke="#E2E8F0"/>
    <text x="264" y="936" class="t" fill="#475569">💡 定价逻辑：App 锚定「比线下便宜一个数量级」· 级别越高应试属性越强 → 阶梯提价 · 年付≈8 折锁 LTV</text>
    <!-- addon cards -->
    <rect x="248" y="962" width="298" height="40" rx="8" fill="#FFFFFF" stroke="#E2E8F0"/>
    <rect x="561" y="962" width="298" height="40" rx="8" fill="#FFFFFF" stroke="#E2E8F0"/>
    <rect x="874" y="962" width="298" height="40" rx="8" fill="#FFFFFF" stroke="#E2E8F0"/>
    <text x="264" y="986" class="cap" fill="#475569">1v1 外教 · S$35</text>
    <text x="577" y="986" class="cap" fill="#475569">口语角 · 月卡 S$128</text>
    <text x="890" y="986" class="cap" fill="#475569">私教陪跑 · S$388</text>
    <text x="960" y="948" class="tag">增值卡（3 列网格）</text>
  </g>

  <!-- ====== §3 每日任务 ====== -->
  <g>
    <rect x="230" y="1030" width="960" height="230" rx="12" fill="#FFFFFF" stroke="#CBD5E1"/>
    <circle cx="256" cy="1060" r="14" fill="#EEF2FF"/><text x="256" y="1065" text-anchor="middle" class="hd" fill="#4338CA">3</text>
    <text x="282" y="1058" class="hd">每日任务 · Daily Set</text>
    <text x="282" y="1076" class="sub">App 核心循环，每天一套 15–25 min，按级别自适应</text>
    <line x1="248" y1="1090" x2="1172" y2="1090" stroke="#E2E8F0"/>
    <text x="990" y="1058" class="tag">⑥ 环节表 + 分档卡</text>
    <!-- steps rows -->
    <g>
      <circle cx="270" cy="1116" r="12" fill="#FEF3C7"/><rect x="296" y="1112" width="220" height="8" rx="4" fill="#CBD5E1"/><rect x="900" y="1110" width="80" height="14" rx="7" fill="#F1F5F9"/>
      <circle cx="270" cy="1144" r="12" fill="#EEF2FF"/><rect x="296" y="1140" width="200" height="8" rx="4" fill="#CBD5E1"/><rect x="900" y="1138" width="80" height="14" rx="7" fill="#F1F5F9"/>
      <circle cx="270" cy="1172" r="12" fill="#DCFCE7"/><rect x="296" y="1168" width="240" height="8" rx="4" fill="#CBD5E1"/><rect x="900" y="1166" width="80" height="14" rx="7" fill="#F1F5F9"/>
    </g>
    <text x="296" y="1196" class="sub">⋮  闪卡 / 口语 / 对话 / 语法 / 听力 / 打卡（6 环节）</text>
    <!-- tier cards -->
    <rect x="248" y="1206" width="298" height="42" rx="8" fill="#FFFFFF" stroke="#E2E8F0"/>
    <rect x="561" y="1206" width="298" height="42" rx="8" fill="#FFFFFF" stroke="#E2E8F0"/>
    <rect x="874" y="1206" width="298" height="42" rx="8" fill="#FFFFFF" stroke="#E2E8F0"/>
    <text x="264" y="1232" class="cap" fill="#475569">L1–L2 跟读为主</text>
    <text x="577" y="1232" class="cap" fill="#475569">L3–L4 对话/语法</text>
    <text x="890" y="1232" class="cap" fill="#475569">L5–L6 应试去脚手架</text>
  </g>

  <!-- ====== §4 App 界面系统 ====== -->
  <g>
    <rect x="230" y="1280" width="960" height="368" rx="12" fill="#FFFFFF" stroke="#CBD5E1"/>
    <circle cx="256" cy="1310" r="14" fill="#EEF2FF"/><text x="256" y="1315" text-anchor="middle" class="hd" fill="#4338CA">4</text>
    <text x="282" y="1308" class="hd">App 界面系统设计</text>
    <text x="282" y="1326" class="sub">参考 App 借鉴点 + 13 屏界面稿（.svg，可上传 png 覆盖）</text>
    <line x1="248" y1="1340" x2="1172" y2="1340" stroke="#E2E8F0"/>
    <text x="980" y="1308" class="tag">⑦ 参考卡网格 + 缩略图画廊</text>
    <!-- ref app cards -->
    <text x="248" y="1364" class="cap" fill="#475569">参考 App &amp; 借鉴点</text>
    <g>
      <rect x="248" y="1372" width="178" height="46" rx="8" fill="#F0FDFA" stroke="#99F6E4"/>
      <rect x="437" y="1372" width="178" height="46" rx="8" fill="#F0FDFA" stroke="#99F6E4"/>
      <rect x="626" y="1372" width="178" height="46" rx="8" fill="#F0FDFA" stroke="#99F6E4"/>
      <rect x="815" y="1372" width="178" height="46" rx="8" fill="#F0FDFA" stroke="#99F6E4"/>
      <rect x="1004" y="1372" width="168" height="46" rx="8" fill="#F0FDFA" stroke="#99F6E4"/>
      <text x="262" y="1392" class="cap" fill="#0F766E">Duolingo</text>
      <text x="451" y="1392" class="cap" fill="#0F766E">ELSA</text>
      <text x="640" y="1392" class="cap" fill="#0F766E">Speak</text>
      <text x="829" y="1392" class="cap" fill="#0F766E">Cambly</text>
      <text x="1018" y="1392" class="cap" fill="#0F766E">Busuu</text>
    </g>
    <!-- gallery label -->
    <text x="248" y="1444" class="cap" fill="#475569">关键界面清单（13 屏 · 每张卡含缩略图 + 用途 + 借鉴来源）</text>
    <!-- phone thumbnails -->
    <g>
      <!-- reusable phone: rect + notch + bars -->
      <g>
        <rect x="248" y="1456" width="132" height="176" rx="12" fill="#F8FAFC" stroke="#CBD5E1"/>
        <rect x="292" y="1464" width="44" height="6" rx="3" fill="#CBD5E1"/>
        <rect x="262" y="1482" width="104" height="10" rx="4" fill="#E2E8F0"/>
        <rect x="262" y="1500" width="104" height="40" rx="6" fill="#E2E8F0"/>
        <rect x="262" y="1548" width="104" height="18" rx="6" fill="#DCFCE7"/>
        <rect x="248" y="1612" width="132" height="20" rx="0" fill="#F1F5F9"/>
        <text x="314" y="1650" text-anchor="middle" class="cap">首页</text>
      </g>
      <g transform="translate(160,0)">
        <rect x="248" y="1456" width="132" height="176" rx="12" fill="#F8FAFC" stroke="#CBD5E1"/>
        <rect x="292" y="1464" width="44" height="6" rx="3" fill="#CBD5E1"/>
        <rect x="262" y="1482" width="104" height="10" rx="4" fill="#E2E8F0"/>
        <rect x="262" y="1500" width="104" height="40" rx="6" fill="#E2E8F0"/>
        <rect x="262" y="1548" width="104" height="18" rx="6" fill="#DCFCE7"/>
        <rect x="248" y="1612" width="132" height="20" fill="#F1F5F9"/>
        <text x="314" y="1650" text-anchor="middle" class="cap">口语</text>
      </g>
      <g transform="translate(320,0)">
        <rect x="248" y="1456" width="132" height="176" rx="12" fill="#F8FAFC" stroke="#CBD5E1"/>
        <rect x="292" y="1464" width="44" height="6" rx="3" fill="#CBD5E1"/>
        <rect x="262" y="1482" width="104" height="10" rx="4" fill="#E2E8F0"/>
        <rect x="262" y="1500" width="104" height="40" rx="6" fill="#E2E8F0"/>
        <rect x="262" y="1548" width="104" height="18" rx="6" fill="#DCFCE7"/>
        <rect x="248" y="1612" width="132" height="20" fill="#F1F5F9"/>
        <text x="314" y="1650" text-anchor="middle" class="cap">对话</text>
      </g>
      <g transform="translate(480,0)">
        <rect x="248" y="1456" width="132" height="176" rx="12" fill="#F8FAFC" stroke="#CBD5E1"/>
        <rect x="292" y="1464" width="44" height="6" rx="3" fill="#CBD5E1"/>
        <rect x="262" y="1482" width="104" height="10" rx="4" fill="#E2E8F0"/>
        <rect x="262" y="1500" width="104" height="40" rx="6" fill="#E2E8F0"/>
        <rect x="262" y="1548" width="104" height="18" rx="6" fill="#DCFCE7"/>
        <rect x="248" y="1612" width="132" height="20" fill="#F1F5F9"/>
        <text x="314" y="1650" text-anchor="middle" class="cap">语法</text>
      </g>
      <g transform="translate(640,0)">
        <rect x="248" y="1456" width="132" height="176" rx="12" fill="#F8FAFC" stroke="#CBD5E1"/>
        <rect x="292" y="1464" width="44" height="6" rx="3" fill="#CBD5E1"/>
        <rect x="262" y="1482" width="104" height="10" rx="4" fill="#E2E8F0"/>
        <rect x="262" y="1500" width="104" height="40" rx="6" fill="#E2E8F0"/>
        <rect x="262" y="1548" width="104" height="18" rx="6" fill="#DCFCE7"/>
        <rect x="248" y="1612" width="132" height="20" fill="#F1F5F9"/>
        <text x="314" y="1650" text-anchor="middle" class="cap">打卡</text>
      </g>
      <!-- +8 tile -->
      <g transform="translate(800,0)">
        <rect x="248" y="1456" width="124" height="176" rx="12" fill="#FFFFFF" stroke="#CBD5E1" stroke-dasharray="5 4"/>
        <text x="310" y="1552" text-anchor="middle" class="hd" fill="#94A3B8">+8 屏</text>
        <text x="310" y="1650" text-anchor="middle" class="cap">…共 13 屏</text>
      </g>
    </g>
  </g>
</svg>
