<svg xmlns="http://www.w3.org/2000/svg" width="375" height="812" viewBox="0 0 375 812" font-family="-apple-system, 'PingFang SC', 'Segoe UI', Roboto, sans-serif">
  <defs>
    <clipPath id="frame"><rect x="0" y="0" width="375" height="812" rx="40"/></clipPath>
  </defs>
  <g clip-path="url(#frame)">
    <rect x="0" y="0" width="375" height="812" fill="#F1F5F9"/>

    <!-- status bar -->
    <text x="24" y="30" font-size="14" font-weight="700" fill="#0F172A">9:41</text>
    <g fill="#0F172A"><rect x="316" y="20" width="18" height="11" rx="2"/><rect x="337" y="22" width="2" height="7" rx="1"/><circle cx="300" cy="26" r="2.5"/><circle cx="292" cy="26" r="2.5"/><circle cx="284" cy="26" r="2.5"/></g>

    <!-- page title -->
    <text x="24" y="72" font-size="22" font-weight="800" fill="#0F172A">我的</text>

    <!-- profile card -->
    <rect x="20" y="88" width="335" height="96" rx="16" fill="#FFFFFF"/>
    <circle cx="66" cy="136" r="30" fill="#DCFCE7"/>
    <text x="66" y="146" font-size="26" font-weight="800" fill="#16A34A" text-anchor="middle">K</text>
    <text x="112" y="124" font-size="17" font-weight="800" fill="#0F172A">Kevin Lee</text>
    <rect x="112" y="134" width="66" height="24" rx="12" fill="#DCFCE7"/>
    <text x="145" y="150" font-size="12" font-weight="800" fill="#15803D" text-anchor="middle">L2 基础</text>
    <text x="112" y="174" font-size="12" fill="#94A3B8">加入 46 天</text>

    <!-- stats 2x2 -->
    <rect x="20" y="200" width="163" height="76" rx="14" fill="#FFFFFF"/>
    <text x="38" y="230" font-size="20">🔥</text>
    <text x="70" y="232" font-size="22" font-weight="800" fill="#0F172A">12</text>
    <text x="38" y="258" font-size="12" fill="#64748B">连续学习(天)</text>

    <rect x="192" y="200" width="163" height="76" rx="14" fill="#FFFFFF"/>
    <text x="210" y="230" font-size="20">💎</text>
    <text x="242" y="232" font-size="22" font-weight="800" fill="#0F172A">1,240</text>
    <text x="210" y="258" font-size="12" fill="#64748B">总 XP</text>

    <rect x="20" y="284" width="163" height="76" rx="14" fill="#FFFFFF"/>
    <text x="38" y="314" font-size="20">📅</text>
    <text x="70" y="316" font-size="22" font-weight="800" fill="#0F172A">46</text>
    <text x="38" y="342" font-size="12" fill="#64748B">学习(天)</text>

    <rect x="192" y="284" width="163" height="76" rx="14" fill="#FFFFFF"/>
    <text x="210" y="314" font-size="20">📖</text>
    <text x="242" y="316" font-size="22" font-weight="800" fill="#0F172A">156</text>
    <text x="210" y="342" font-size="12" fill="#64748B">掌握词汇</text>

    <!-- membership card -->
    <rect x="20" y="376" width="335" height="72" rx="16" fill="#F3E8FF"/>
    <text x="38" y="408" font-size="20">👑</text>
    <text x="70" y="404" font-size="15" font-weight="800" fill="#0F172A">优加会员</text>
    <text x="70" y="424" font-size="12" fill="#8B5CF6">有效期至 2026-09-01</text>
    <rect x="283" y="396" width="56" height="32" rx="16" fill="#8B5CF6"/>
    <text x="311" y="416" font-size="13" font-weight="700" fill="#fff" text-anchor="middle">续费</text>

    <!-- menu list -->
    <rect x="20" y="464" width="335" height="232" rx="16" fill="#FFFFFF"/>

    <text x="40" y="504" font-size="18">📘</text>
    <text x="72" y="505" font-size="15" font-weight="600" fill="#0F172A">我的课程</text>
    <text x="335" y="506" font-size="17" fill="#CBD5E1" text-anchor="end">›</text>
    <line x1="40" y1="522" x2="335" y2="522" stroke="#E2E8F0" stroke-width="1"/>

    <text x="40" y="561" font-size="18">👩‍🏫</text>
    <text x="72" y="562" font-size="15" font-weight="600" fill="#0F172A">约外教</text>
    <text x="335" y="563" font-size="17" fill="#CBD5E1" text-anchor="end">›</text>
    <line x1="40" y1="579" x2="335" y2="579" stroke="#E2E8F0" stroke-width="1"/>

    <text x="40" y="618" font-size="18">📊</text>
    <text x="72" y="619" font-size="15" font-weight="600" fill="#0F172A">学习报告</text>
    <text x="335" y="620" font-size="17" fill="#CBD5E1" text-anchor="end">›</text>
    <line x1="40" y1="636" x2="335" y2="636" stroke="#E2E8F0" stroke-width="1"/>

    <text x="40" y="675" font-size="18">⚙️</text>
    <text x="72" y="676" font-size="15" font-weight="600" fill="#0F172A">设置</text>
    <text x="335" y="677" font-size="17" fill="#CBD5E1" text-anchor="end">›</text>

    <!-- bottom nav -->
    <rect x="0" y="740" width="375" height="72" fill="#FFFFFF"/>
    <line x1="0" y1="740" x2="375" y2="740" stroke="#E2E8F0" stroke-width="1"/>
    <g text-anchor="middle">
      <text x="47" y="772" font-size="20" opacity="0.4">🏠</text><text x="47" y="792" font-size="10" fill="#94A3B8">首页</text>
      <text x="141" y="772" font-size="20" opacity="0.4">📚</text><text x="141" y="792" font-size="10" fill="#94A3B8">学习</text>
      <text x="235" y="772" font-size="20" opacity="0.4">🎙</text><text x="235" y="792" font-size="10" fill="#94A3B8">口语</text>
      <text x="329" y="772" font-size="20">👤</text><text x="329" y="792" font-size="10" font-weight="700" fill="#22C55E">我的</text>
    </g>
  </g>
  <rect x="0.5" y="0.5" width="374" height="811" rx="40" fill="none" stroke="#CBD5E1" stroke-width="1"/>
</svg>
