<svg xmlns="http://www.w3.org/2000/svg" width="375" height="812" viewBox="0 0 375 812" font-family="-apple-system, 'PingFang SC', 'Segoe UI', Roboto, sans-serif">
  <defs>
    <clipPath id="frame"><rect x="0" y="0" width="375" height="812" rx="40"/></clipPath>
  </defs>
  <g clip-path="url(#frame)">
    <rect x="0" y="0" width="375" height="812" fill="#F1F5F9"/>

    <!-- status bar -->
    <text x="24" y="30" font-size="14" font-weight="700" fill="#0F172A">9:41</text>
    <g fill="#0F172A"><rect x="316" y="20" width="18" height="11" rx="2"/><rect x="337" y="22" width="2" height="7" rx="1"/><circle cx="300" cy="26" r="2.5"/><circle cx="292" cy="26" r="2.5"/><circle cx="284" cy="26" r="2.5"/></g>

    <!-- title -->
    <text x="24" y="80" font-size="22" font-weight="800" fill="#0F172A">复习 · 错题本</text>
    <text x="24" y="104" font-size="13" fill="#64748B">间隔重复，稳固记忆</text>

    <!-- stat pills -->
    <rect x="20" y="122" width="163" height="46" rx="14" fill="#FEF3C7"/>
    <text x="38" y="145" font-size="13" fill="#B45309">待复习</text>
    <text x="38" y="162" font-size="12" fill="#B45309" opacity="0.7">need review</text>
    <text x="165" y="154" font-size="22" font-weight="800" fill="#B45309" text-anchor="end">18</text>

    <rect x="192" y="122" width="163" height="46" rx="14" fill="#DCFCE7"/>
    <text x="210" y="145" font-size="13" fill="#15803D">已掌握</text>
    <text x="210" y="162" font-size="12" fill="#15803D" opacity="0.7">mastered</text>
    <text x="337" y="154" font-size="22" font-weight="800" fill="#16A34A" text-anchor="end">156</text>

    <!-- category tabs -->
    <g>
      <rect x="20" y="184" width="64" height="32" rx="16" fill="#22C55E"/>
      <text x="52" y="205" font-size="13" font-weight="700" fill="#fff" text-anchor="middle">单词</text>
      <rect x="92" y="184" width="64" height="32" rx="16" fill="#FFFFFF" stroke="#E2E8F0" stroke-width="1"/>
      <text x="124" y="205" font-size="13" font-weight="700" fill="#64748B" text-anchor="middle">语法</text>
      <rect x="164" y="184" width="64" height="32" rx="16" fill="#FFFFFF" stroke="#E2E8F0" stroke-width="1"/>
      <text x="196" y="205" font-size="13" font-weight="700" fill="#64748B" text-anchor="middle">口语</text>
    </g>

    <!-- section title -->
    <text x="24" y="248" font-size="15" font-weight="800" fill="#0F172A">今日待复习</text>
    <text x="355" y="248" font-size="12" fill="#94A3B8" text-anchor="end">4 词</text>

    <!-- card 1 -->
    <rect x="20" y="262" width="335" height="72" rx="16" fill="#FFFFFF"/>
    <text x="38" y="294" font-size="17" font-weight="800" fill="#0F172A">efficient</text>
    <text x="132" y="294" font-size="12" font-style="italic" fill="#94A3B8">adj.</text>
    <text x="38" y="315" font-size="12" fill="#EF4444">上次答错 · 2 天前</text>
    <rect x="284" y="282" width="56" height="32" rx="16" fill="#FEE2E2"/>
    <text x="303" y="302" font-size="13" fill="#EF4444">↻</text>
    <text x="320" y="303" font-size="12" font-weight="700" fill="#EF4444" text-anchor="middle">复习</text>

    <!-- card 2 -->
    <rect x="20" y="342" width="335" height="72" rx="16" fill="#FFFFFF"/>
    <text x="38" y="374" font-size="17" font-weight="800" fill="#0F172A">reluctant</text>
    <text x="130" y="374" font-size="12" font-style="italic" fill="#94A3B8">adj.</text>
    <text x="38" y="395" font-size="12" fill="#EF4444">上次答错 · 3 天前</text>
    <rect x="284" y="362" width="56" height="32" rx="16" fill="#FEE2E2"/>
    <text x="303" y="382" font-size="13" fill="#EF4444">↻</text>
    <text x="320" y="383" font-size="12" font-weight="700" fill="#EF4444" text-anchor="middle">复习</text>

    <!-- card 3 -->
    <rect x="20" y="422" width="335" height="72" rx="16" fill="#FFFFFF"/>
    <text x="38" y="454" font-size="17" font-weight="800" fill="#0F172A">negotiate</text>
    <text x="132" y="454" font-size="12" font-style="italic" fill="#94A3B8">v.</text>
    <text x="38" y="475" font-size="12" fill="#64748B">模糊记忆 · 5 天前</text>
    <rect x="284" y="442" width="56" height="32" rx="16" fill="#DCFCE7"/>
    <text x="303" y="462" font-size="13" fill="#16A34A">↻</text>
    <text x="320" y="463" font-size="12" font-weight="700" fill="#16A34A" text-anchor="middle">复习</text>

    <!-- card 4 -->
    <rect x="20" y="502" width="335" height="72" rx="16" fill="#FFFFFF"/>
    <text x="38" y="534" font-size="17" font-weight="800" fill="#0F172A">substantial</text>
    <text x="146" y="534" font-size="12" font-style="italic" fill="#94A3B8">adj.</text>
    <text x="38" y="555" font-size="12" fill="#64748B">模糊记忆 · 6 天前</text>
    <rect x="284" y="522" width="56" height="32" rx="16" fill="#DCFCE7"/>
    <text x="303" y="542" font-size="13" fill="#16A34A">↻</text>
    <text x="320" y="543" font-size="12" font-weight="700" fill="#16A34A" text-anchor="middle">复习</text>

    <!-- start button -->
    <rect x="20" y="656" width="335" height="56" rx="16" fill="#22C55E"/>
    <text x="187" y="690" font-size="17" font-weight="800" fill="#fff" text-anchor="middle">开始复习（18）</text>

    <!-- bottom nav -->
    <rect x="0" y="740" width="375" height="72" fill="#FFFFFF"/>
    <line x1="0" y1="740" x2="375" y2="740" stroke="#E2E8F0" stroke-width="1"/>
    <g text-anchor="middle">
      <text x="47" y="772" font-size="20" opacity="0.4">🏠</text><text x="47" y="792" font-size="10" fill="#94A3B8">首页</text>
      <text x="141" y="772" font-size="20">📚</text><text x="141" y="792" font-size="10" font-weight="700" fill="#22C55E">学习</text>
      <text x="235" y="772" font-size="20" opacity="0.4">🎙</text><text x="235" y="792" font-size="10" fill="#94A3B8">口语</text>
      <text x="329" y="772" font-size="20" opacity="0.4">👤</text><text x="329" y="792" font-size="10" fill="#94A3B8">我的</text>
    </g>
  </g>
  <rect x="0.5" y="0.5" width="374" height="811" rx="40" fill="none" stroke="#CBD5E1" stroke-width="1"/>
</svg>
